<svg aria-hidden="true" style="position:absolute;width:0;height:0;overflow:hidden" xmlns="http://www.w3.org/2000/svg">
  <defs>
    <symbol id="logo" viewBox="0 0 47 32">
      <path fill="#263238" style="fill:var(--color1, #263238)" d="m25.048 17.512-7.188 12.31-7.188-12.31h14.376zm1.926-1.1H8.739L17.86 32l9.113-15.588zM37.545 2.2l7.188 12.311H30.357L37.545 2.2zm0-2.2-9.121 15.588h18.243L37.546 0z"/>
      <path fill="#4caf4f" style="fill:var(--color2, #4caf4f)" d="m0 0 7.648 13.788L16.005.346 0 0zM17.861 1.208l8.022 13.711H9.823l8.038-13.711zM27.949 17.912 35.979 32H19.537l8.162-14.088h.249zM29.687 17.058l7.858 13.872 7.967-13.872H29.686z"/>
    </symbol>
    <symbol id="nexcent" viewBox="0 0 163 32">
      <path d="M24.775.973v29.62h-5.409L6.48 11.95h-.217v18.643H.001V.973h5.496l12.785 18.628h.26V.973h6.233zM39.957 31.027c-2.285 0-4.252-.463-5.901-1.389-1.639-.935-2.902-2.256-3.789-3.963-.887-1.716-1.331-3.746-1.331-6.089 0-2.285.444-4.291 1.331-6.017s2.136-3.071 3.746-4.035c1.62-.964 3.519-1.446 5.698-1.446 1.466 0 2.83.236 4.093.709a9.074 9.074 0 0 1 3.326 2.097c.955.935 1.697 2.112 2.227 3.529.53 1.408.795 3.056.795 4.946v1.692H31.394v-3.818h12.959c0-.887-.193-1.673-.579-2.357s-.921-1.22-1.605-1.605c-.675-.395-1.461-.593-2.357-.593-.935 0-1.764.217-2.488.651a4.56 4.56 0 0 0-1.678 1.721c-.405.713-.612 1.509-.622 2.386v3.63c0 1.099.202 2.049.607 2.849.415.8.998 1.417 1.75 1.851s1.644.651 2.676.651c.685 0 1.311-.096 1.88-.289s1.056-.482 1.461-.868.713-.858.926-1.417l5.698.376a7.777 7.777 0 0 1-1.779 3.587c-.887 1.012-2.034 1.803-3.442 2.372-1.398.559-3.013.839-4.845.839zM58.925 8.378l4.079 7.766 4.18-7.766h6.32l-6.436 11.107 6.61 11.108h-6.291l-4.382-7.68-4.31 7.68h-6.364l6.595-11.108-6.364-11.107h6.364zM86.404 31.027c-2.275 0-4.233-.482-5.872-1.446-1.629-.974-2.883-2.324-3.76-4.05-.868-1.726-1.302-3.712-1.302-5.959 0-2.276.439-4.271 1.316-5.988.887-1.726 2.145-3.071 3.775-4.035 1.63-.974 3.568-1.461 5.814-1.461 1.938 0 3.635.352 5.091 1.056s2.608 1.692 3.457 2.965c.848 1.273 1.316 2.767 1.403 4.483h-5.814c-.164-1.109-.598-2.001-1.302-2.676-.694-.685-1.605-1.027-2.733-1.027-.955 0-1.789.26-2.502.781-.704.511-1.253 1.258-1.649 2.242s-.593 2.174-.593 3.572c0 1.417.193 2.623.578 3.616.395.993.95 1.75 1.663 2.271s1.547.781 2.502.781c.704 0 1.335-.145 1.895-.434a3.658 3.658 0 0 0 1.403-1.258c.376-.559.622-1.229.738-2.01h5.814c-.096 1.697-.559 3.191-1.388 4.483-.82 1.282-1.952 2.285-3.399 3.008s-3.158 1.085-5.134 1.085zM110.395 31.027c-2.285 0-4.252-.463-5.901-1.389-1.639-.935-2.902-2.256-3.789-3.963-.887-1.716-1.331-3.746-1.331-6.089 0-2.285.444-4.291 1.331-6.017s2.136-3.071 3.746-4.035c1.62-.964 3.519-1.446 5.698-1.446 1.465 0 2.83.236 4.093.709a9.074 9.074 0 0 1 3.326 2.097c.955.935 1.697 2.112 2.227 3.529.53 1.408.795 3.056.795 4.946v1.692h-18.758v-3.818h12.959c0-.887-.193-1.673-.578-2.357s-.921-1.22-1.605-1.605c-.675-.395-1.461-.593-2.357-.593-.935 0-1.764.217-2.488.651a4.567 4.567 0 0 0-1.678 1.721c-.405.713-.612 1.509-.622 2.386v3.63c0 1.099.202 2.049.607 2.849.415.8.998 1.417 1.75 1.851s1.644.651 2.676.651c.684 0 1.311-.096 1.88-.289s1.056-.482 1.461-.868.713-.858.926-1.417l5.698.376a7.777 7.777 0 0 1-1.779 3.587c-.887 1.012-2.034 1.803-3.442 2.372-1.398.559-3.013.839-4.845.839zM130.773 17.75v12.843h-6.161V8.378h5.872v3.919h.26a6.198 6.198 0 0 1 2.473-3.066c1.157-.762 2.56-1.143 4.209-1.143 1.543 0 2.888.337 4.035 1.012s2.039 1.639 2.676 2.893c.636 1.244.954 2.729.954 4.455v14.145h-6.161V17.547c.01-1.359-.337-2.42-1.041-3.182-.704-.771-1.673-1.157-2.907-1.157-.829 0-1.562.178-2.198.535-.627.357-1.118.877-1.475 1.562-.347.675-.525 1.49-.535 2.444zM161.763 8.378v4.628h-13.377V8.378h13.377zm-10.34-5.322h6.16v20.711c0 .569.087 1.012.26 1.331.175.308.415.525.724.651.317.125.684.188 1.098.188.289 0 .579-.024.868-.072.289-.058.511-.101.665-.13l.969 4.585c-.308.096-.742.207-1.3.333-.56.135-1.239.217-2.039.246-1.485.058-2.787-.14-3.905-.593-1.108-.453-1.972-1.157-2.589-2.112s-.921-2.16-.911-3.616V3.057z"/>
    </symbol>
     <symbol id="instagram" viewBox="0 0 32 32">
      <path  d="M31.969 9.408c-.075-1.7-.35-2.869-.744-3.882-.406-1.075-1.031-2.038-1.85-2.838A7.8671 7.8671 0 0 0 26.543.844C25.524.45 24.361.175 22.661.1 20.948.019 20.404 0 16.06 0s-4.888.019-6.595.094c-1.7.075-2.869.35-3.882.744-1.075.406-2.038 1.031-2.838 1.85-.813.8-1.444 1.769-1.844 2.832C.507 6.539.232 7.702.157 9.402c-.081 1.713-.1 2.257-.1 6.601s.019 4.888.094 6.595c.075 1.7.35 2.869.744 3.882.406 1.075 1.038 2.038 1.85 2.838.8.813 1.769 1.444 2.832 1.844 1.019.394 2.182.669 3.882.744 1.706.075 2.25.094 6.595.094s4.888-.018 6.595-.094c1.7-.075 2.869-.35 3.882-.744a8.1814 8.1814 0 0 0 4.682-4.682c.394-1.019.669-2.182.744-3.882.075-1.707.094-2.251.094-6.595s-.006-4.888-.081-6.595zm-2.882 13.065c-.069 1.563-.331 2.407-.55 2.969-.538 1.394-1.644 2.501-3.038 3.038-.563.219-1.413.481-2.969.55-1.688.075-2.194.094-6.464.094s-4.782-.018-6.464-.094c-1.563-.069-2.407-.331-2.969-.55-.694-.256-1.325-.663-1.838-1.194-.531-.519-.938-1.144-1.194-1.838-.219-.563-.481-1.413-.55-2.969-.075-1.688-.094-2.194-.094-6.464s.019-4.782.094-6.464c.069-1.563.331-2.407.55-2.969.256-.694.663-1.325 1.2-1.838.519-.531 1.144-.938 1.838-1.194.563-.219 1.413-.481 2.969-.55 1.688-.075 2.194-.094 6.464-.094 4.276 0 4.782.019 6.464.094 1.563.069 2.407.331 2.969.55.694.256 1.325.662 1.838 1.194.531.519.938 1.144 1.194 1.838.219.563.481 1.413.55 2.969.075 1.688.094 2.194.094 6.464s-.019 4.77-.094 6.457z" />
      <path  d="M16.059 7.782c-4.538 0-8.22 3.682-8.22 8.22s3.682 8.22 8.22 8.22 8.22-3.682 8.22-8.22-3.682-8.22-8.22-8.22zm0 13.553c-2.944 0-5.332-2.388-5.332-5.332s2.388-5.332 5.332-5.332 5.332 2.388 5.332 5.332-2.388 5.332-5.332 5.332zM26.524 7.457c0 1.06-.859 1.919-1.919 1.919s-1.919-.859-1.919-1.919.859-1.919 1.919-1.919 1.919.859 1.919 1.919z" />
    </symbol>
    <symbol id="twitter" viewBox="0 0 32 32">
      <path  d="M32 6.078c-1.19.522-2.458.868-3.78 1.036 1.36-.812 2.398-2.088 2.886-3.626-1.268.756-2.668 1.29-4.16 1.588C25.742 3.794 24.026 3 22.154 3c-3.632 0-6.556 2.948-6.556 6.562 0 .52.044 1.02.152 1.496-5.454-.266-10.28-2.88-13.522-6.862-.566.982-.898 2.106-.898 3.316 0 2.272 1.17 4.286 2.914 5.452-1.054-.02-2.088-.326-2.964-.808v.072c0 3.188 2.274 5.836 5.256 6.446-.534.146-1.116.216-1.72.216-.42 0-.844-.024-1.242-.112.85 2.598 3.262 4.508 6.13 4.57-2.232 1.746-5.066 2.798-8.134 2.798-.538 0-1.054-.024-1.57-.09C2.906 27.93 6.35 29 10.064 29c12.072 0 18.672-10 18.672-18.668 0-.29-.01-.57-.024-.848C30.014 8.56 31.108 7.406 32 6.078z" />
    </symbol>
    <symbol id="facebook" viewBox="0 0 32 32">
      <path  d="M21.329 5.313h2.921V.225C23.746.156 22.013 0 19.994 0c-4.212 0-7.097 2.649-7.097 7.519V12H8.249v5.688h4.648V32h5.699V17.689h4.46l.708-5.688h-5.169V8.082c.001-1.644.444-2.769 2.735-2.769z" />
    </symbol>
    <symbol id="linkedin" viewBox="0 0 32 32">
      <path  d="M31.992 32v-.001H32V20.263c0-5.741-1.236-10.164-7.948-10.164-3.227 0-5.392 1.771-6.276 3.449h-.093v-2.913h-6.364v21.364h6.627V21.42c0-2.785.528-5.479 3.977-5.479 3.399 0 3.449 3.179 3.449 5.657v10.401h6.62zM.528 10.636h6.635V32H.528V10.636zM3.843 0C1.722 0 0 1.721 0 3.843s1.721 3.879 3.843 3.879c2.121 0 3.843-1.757 3.843-3.879C7.685 1.722 5.963 0 3.843 0z" />
    </symbol>
  </defs>
</svg>